<svg fill="#ffffff" xmlns="http://www.w3.org/2000/svg" xmlns:xlink="http://www.w3.org/1999/xlink" version="1.1" x="0px" y="0px" viewBox="0 0 1000 1000" enable-background="new 0 0 1000 1000" xml:space="preserve"><g><path d="M475.2,428.8h48.4c3.1,0,5.6-2.5,5.6-5.6v-48.4c0-3.1-2.5-5.6-5.6-5.6h-48.4c-3.1,0-5.6,2.5-5.6,5.6v48.4   C469.6,426.3,472.1,428.8,475.2,428.8z"></path><path d="M972.3,249.1H860.6V249c0-5-4-9-9-9c-5,0-9,4-9,9v0.1H730.9c-5,0-9,4-9,9c0,5,4,9,9,9h111.7v24   c-16.5,3.9-28.9,18.8-28.9,36.5v17.6H686.1v-0.7c0-24-19.5-43.4-43.4-43.4H356.1c-23.9,0-43.4,19.5-43.4,43.4v0.7H186.3v-17.6   c0-17.7-12.3-32.6-28.9-36.5v-24h111.7c5,0,9-4,9-9c0-5-4-9-9-9H157.4V249c0-5-4-9-9-9c-5,0-9,4-9,9v0.1H27.7c-5,0-9,4-9,9   c0,5,4,9,9,9h111.7v24c-16.5,3.9-28.9,18.8-28.9,36.5v53.2c0,20.7,16.9,37.6,37.6,37.6h0.6c20.7,0,37.6-16.9,37.6-37.6v-17.6h126.4   v1.3c0,24,19.5,43.4,43.4,43.4h41.5v15.2c0,9.2,1.6,18,4.6,26.2c-41.2,21.1-67.4,63.5-67.4,110.3l-0.1,21.2c0,2.4,0.9,4.7,2.6,6.4   c1.7,1.7,4,2.6,6.4,2.6h24.3c0.5,0,0.9,0,1.4-0.1V718c0,3.9,2.5,7.4,6.3,8.6l101.7,32.3c0.9,0.3,1.8,0.4,2.7,0.4c0.1,0,0.2,0,0.3,0   c0,0,0,0,0,0c0.3,0,0.7,0,1-0.1c0.1,0,0.2,0,0.3-0.1c0.1,0,0.3,0,0.4-0.1l141.2-32.3c4.1-0.9,7-4.6,7-8.8V589.9h24.9   c2.4,0,4.7-1,6.4-2.7c1.7-1.7,2.6-4,2.6-6.4l-0.3-21.1c0-46.8-26.2-89.1-67.4-110.3c3-8.2,4.6-17,4.6-26.2V408h41.5   c24,0,43.4-19.5,43.4-43.4v-1.3h127.7v17.6c0,20.7,16.9,37.6,37.6,37.6h0.6c20.7,0,37.6-16.9,37.6-37.6v-53.2   c0-17.7-12.3-32.6-28.9-36.5v-24h111.7c5,0,9-4,9-9C981.3,253.2,977.3,249.1,972.3,249.1z M451.6,374.8c0-13,10.6-23.6,23.6-23.6   h48.4c13,0,23.6,10.6,23.6,23.6v48.4c0,13-10.6,23.6-23.6,23.6h-48.4c-13,0-23.6-10.6-23.6-23.6V374.8z M471.2,738l-83.7-26.6V572   l37.3,11.8l46.5,14.7V738z M480.5,582.7l-67.9-21.6l106.7-24.4l67.9,21.6l-55.8,12.8L480.5,582.7z M612.4,710.8L489.1,739V599.2   l57.3-13.1l66-15.1V710.8z M646,559.8c0,0,0,0.1,0,0.1l0.2,12h-15.8v-11.8c0,0,0,0,0,0c0,0,0,0,0,0c0.2-4.1-2.4-7.7-6.3-8.9   l-101.7-32.3c-1.5-0.5-3.2-0.6-4.7-0.2L376.4,551c-4,0.9-6.8,4.3-7,8.4c0,0.1,0,0.2,0,0.2c0,0,0,0.1,0,0.1V572   c-0.5-0.1-0.9-0.1-1.4-0.1h-15.3l0.1-12.2c0-40,22.3-76.2,57.4-94.2c13.9,21.2,37.8,35.2,65,35.2h48.4c27.2,0,51.1-14,65-35.2   C623.7,483.6,646,519.8,646,559.8z"></path></g></svg>