<svg xmlns="http://www.w3.org/2000/svg" xmlns:xlink="http://www.w3.org/1999/xlink" xml:space="preserve" version="1.1"  viewBox="0 0 333 416.25" x="0px" y="0px" fill-rule="evenodd" width="auto" height="auto" clip-rule="evenodd"><defs>
<style type="text/css">
  .fil0 {fill:#707070;fill-rule:nonzero}
</style></defs>
<path class="fil0" d="M232 79c34,22 55,60 55,100 0,66 -54,120 -120,120 -66,0 -120,-54 -120,-120 0,-41 20,-78 54,-100l0 0c0,-2 0,-4 0,-6 -37,22 -59,62 -59,106 0,69 56,125 125,125 69,0 124,-56 124,-125 0,-44 -22,-84 -59,-106 0,2 0,4 0,6zm-2 14c-2,8 -6,15 -10,24 19,15 29,38 29,62 0,45 -37,82 -82,82 -46,0 -83,-37 -83,-82 0,-24 11,-47 29,-62 -4,-9 -7,-17 -10,-24 -27,20 -43,52 -43,86 0,59 48,106 107,106 58,0 106,-47 106,-106 0,-34 -16,-66 -43,-86zm-3 -38c48,23 78,71 78,124 0,76 -62,138 -138,138 -77,0 -138,-62 -138,-138 0,-53 30,-101 77,-124 22,-51 99,-52 121,0zm-16 79c12,12 19,28 19,45 0,35 -28,63 -63,63 -35,0 -64,-28 -64,-63 0,-17 7,-33 20,-45l-3 -5c-14,13 -22,31 -22,50 0,38 31,69 69,69 38,0 69,-31 69,-69 0,-19 -8,-37 -22,-50l-3 5zm-7 11c-12,18 -24,34 -32,43 -3,4 -8,3 -10,0 -8,-9 -21,-25 -32,-43 -9,9 -13,21 -13,34 0,28 22,50 50,50 27,0 50,-22 50,-50 0,-13 -5,-25 -13,-34zm-74 -26c11,21 26,42 37,55 10,-13 25,-34 37,-55 9,-15 15,-30 15,-40 0,-66 -105,-64 -105,0 0,10 7,25 16,40z"/></svg>