<?xml version="1.0" encoding="utf-8"?>
<svg version="1.1" id="Ebene_1" xmlns="http://www.w3.org/2000/svg" xmlns:xlink="http://www.w3.org/1999/xlink" x="0px" y="0px"
	 viewBox="0 0 100 125" style="enable-background:new 0 0 100 125;" xml:space="preserve">
<g fill="#707070">
	<path d="M24.4,65l-9.7-5.1c-0.3-0.2-0.8,0-1,0.3c-0.2,0.3,0,0.8,0.3,1l9.7,5.1c0.1,0.1,0.2,0.1,0.3,0.1c0.3,0,0.5-0.1,0.6-0.4
		C24.9,65.6,24.8,65.2,24.4,65z"/>
	<path d="M15.8,40.6c0,0,0.1,0,0.1,0c0.1,0,0.2-0.1,0.3-0.2c0.1-0.1,0-0.3-0.1-0.4L11,37.4c-0.1-0.1-0.3,0-0.4,0.1
		c-0.1,0.1,0,0.3,0.1,0.4L15.8,40.6z"/>
	<path d="M14.9,41.6c0.1,0,0.2-0.1,0.3-0.1c0.1-0.1,0-0.3-0.1-0.4L11,38.8c-0.1-0.1-0.3,0-0.4,0.1c-0.1,0.1,0,0.3,0.1,0.4l4.1,2.2
		C14.8,41.6,14.9,41.6,14.9,41.6z"/>
	<path d="M26.9,62.7l-12.1-6.4c-0.3-0.2-0.8,0-1,0.3c-0.2,0.3,0,0.8,0.3,1L26.2,64c0.1,0.1,0.2,0.1,0.3,0.1c0.3,0,0.5-0.1,0.6-0.4
		C27.4,63.4,27.2,62.9,26.9,62.7z"/>
	<path d="M13.8,49.6c-0.2,0.3,0,0.8,0.3,1l14.6,7.7c0.1,0.1,0.2,0.1,0.3,0.1c0.3,0,0.5-0.1,0.6-0.4c0.2-0.3,0-0.8-0.3-1l-14.6-7.7
		C14.4,49.1,14,49.2,13.8,49.6z"/>
	<path d="M18.1,40.4c0,0,0.1,0,0.1,0c0.1,0,0.2-0.1,0.3-0.2c0.1-0.1,0-0.3-0.1-0.4l-7.4-4c-0.1-0.1-0.3,0-0.4,0.1
		c-0.1,0.1,0,0.3,0.1,0.4L18.1,40.4z"/>
	<path d="M13.8,53.1c-0.2,0.3,0,0.8,0.3,1l17.8,9.4c0.1,0.1,0.2,0.1,0.3,0.1c0.3,0,0.5-0.1,0.6-0.4c0.2-0.3,0-0.8-0.3-1l-17.8-9.4
		C14.4,52.6,14,52.8,13.8,53.1z"/>
	<path d="M16.8,38.3c0,0,0.1,0,0.1,0c0.1,0,0.2-0.1,0.3-0.1c0.1-0.1,0-0.3-0.1-0.4L11,34.5c-0.1-0.1-0.3,0-0.4,0.1
		c-0.1,0.1,0,0.3,0.1,0.4L16.8,38.3z"/>
	<path d="M90.2,64l0-15.9l-15.5,0v0V36.3v-8.4c0-0.6-0.4-1.2-0.9-1.5L40.5,8.8c-0.5-0.3-1.1-0.3-1.6,0L5.6,26.4
		c-0.6,0.3-0.9,0.9-0.9,1.5v43.8c0,0.6,0.4,1.2,0.9,1.5l33.3,17.5c0.3,0.1,0.5,0.2,0.8,0.2c0.3,0,0.6-0.1,0.8-0.2l33.3-17.5
		c0.6-0.3,0.9-0.9,0.9-1.5V64L90.2,64z M39.7,12.4l30.4,16l-13.8,7.3l-30.4-16L39.7,12.4z M38.8,86.7L8.2,70.6V29.8l30.6,16.1V86.7z
		 M39.7,44.4l-30.4-16L24,20.6l30.4,16L39.7,44.4z M71.2,70.6L40.6,86.7V45.9l1.1-0.6l29.5-15.5V48v0l-10.2,0v-7.8L45.2,56L61,71.8
		V64l10.2,0V70.6z"/>
</g>
</svg>
