<svg xmlns="http://www.w3.org/2000/svg" xmlns:xlink="http://www.w3.org/1999/xlink" version="1.1" x="0px" y="0px" viewBox="0 0 100 125" enable-background="new 0 0 100 100" xml:space="preserve"><g fill="#707070"><path d="M14.506,38.733c0.074-0.14,0.023-0.312-0.116-0.386l-6.111-3.282c-0.138-0.074-0.311-0.022-0.385,0.115   c-0.075,0.139-0.023,0.312,0.115,0.386l6.112,3.282c0.043,0.023,0.089,0.034,0.134,0.034   C14.357,38.883,14.456,38.828,14.506,38.733 M15.813,40.867c0.073-0.139,0.021-0.311-0.117-0.385l-7.418-3.972   c-0.137-0.072-0.311-0.021-0.385,0.116c-0.074,0.139-0.022,0.312,0.117,0.385l7.418,3.973c0.042,0.022,0.088,0.033,0.133,0.033   C15.664,41.018,15.761,40.963,15.813,40.867 M11.092,60.79c-0.183,0.346-0.05,0.775,0.297,0.957l9.704,5.106   c0.106,0.057,0.219,0.082,0.33,0.082c0.255,0,0.501-0.138,0.628-0.379c0.182-0.347,0.049-0.774-0.297-0.958l-9.705-5.106   C11.704,60.309,11.274,60.443,11.092,60.79 M11.092,57.245c-0.183,0.347-0.05,0.776,0.297,0.958l12.144,6.39   c0.105,0.057,0.218,0.083,0.329,0.083c0.255,0,0.501-0.139,0.628-0.38c0.183-0.346,0.049-0.774-0.297-0.957l-12.144-6.391   C11.704,56.765,11.274,56.899,11.092,57.245 M11.092,53.7c-0.183,0.347-0.05,0.775,0.297,0.958l17.835,9.387   c0.105,0.055,0.218,0.082,0.329,0.082c0.255,0,0.501-0.139,0.628-0.38c0.183-0.346,0.049-0.775-0.297-0.957l-17.835-9.387   C11.704,53.221,11.274,53.353,11.092,53.7 M11.092,50.156c-0.183,0.346-0.05,0.774,0.297,0.957l14.631,7.701   c0.105,0.055,0.218,0.082,0.329,0.082c0.255,0,0.501-0.14,0.628-0.381c0.183-0.346,0.049-0.774-0.297-0.957l-14.631-7.699   C11.704,49.677,11.274,49.81,11.092,50.156 M7.895,39.519c-0.075,0.139-0.024,0.312,0.114,0.386l4.101,2.225   c0.043,0.024,0.09,0.035,0.135,0.035c0.102,0,0.199-0.054,0.251-0.149c0.075-0.138,0.023-0.311-0.115-0.386l-4.101-2.225   C8.144,39.329,7.969,39.381,7.895,39.519 M7.895,38.073c-0.075,0.138-0.024,0.31,0.115,0.385l5.096,2.749   c0.043,0.023,0.089,0.035,0.135,0.035c0.101,0,0.199-0.056,0.251-0.15c0.074-0.138,0.023-0.311-0.116-0.385l-5.096-2.75   C8.142,37.884,7.969,37.934,7.895,38.073 M67.442,28.984l-13.81,7.268L23.196,20.233l13.809-7.269L67.442,28.984z M21.317,21.222   l30.437,16.02l-14.749,7.763L6.568,28.984L21.317,21.222z M36.13,87.311L5.5,71.19V30.4l30.63,16.121V87.311z M68.512,30.4V48.64   H53.018v15.928h15.494v6.623l-30.63,16.12V46.521l1.107-0.583L68.512,30.4z M82.248,40.851v7.789H72.012V28.49   c0-0.65-0.36-1.247-0.936-1.549L37.821,9.438c-0.511-0.27-1.121-0.27-1.631,0L2.936,26.941C2.36,27.243,2,27.84,2,28.49v43.757   c0,0.649,0.36,1.246,0.935,1.548L36.19,91.298c0.255,0.135,0.536,0.202,0.815,0.202c0.28,0,0.561-0.067,0.816-0.202l33.255-17.503   c0.575-0.302,0.936-0.898,0.936-1.548v-7.68h10.236v7.789L98,56.604L82.248,40.851z"/></g></svg>