<svg xmlns="http://www.w3.org/2000/svg" viewBox="0 0 85.5 82.32"><title>receive2</title><path d="M19.7,56.42,10,51.33a.74.74,0,1,0-.7,1.3l9.7,5.1a.37.37,0,0,0,.3.1.55.55,0,0,0,.6-.41A.61.61,0,0,0,19.7,56.42Z" style="fill:#707070"/><path d="M11.1,32h.1c.1,0,.2-.1.3-.2s0-.3-.1-.4L6.3,28.83c-.1-.1-.3,0-.4.09s0,.3.1.41Z" style="fill:#707070"/><path d="M10.2,33c.1,0,.2-.1.3-.1s0-.29-.1-.4l-4.1-2.3c-.1-.09-.3,0-.4.1s0,.3.1.4l4.1,2.2A.1.1,0,0,0,10.2,33Z" style="fill:#707070"/><path d="M22.2,54.13,10.1,47.72A.74.74,0,1,0,9.4,49l12.1,6.4a.37.37,0,0,0,.3.1.55.55,0,0,0,.6-.4C22.7,54.83,22.5,54.33,22.2,54.13Z" style="fill:#707070"/><path d="M9.1,41a.81.81,0,0,0,.3,1L24,49.72a.37.37,0,0,0,.3.1.55.55,0,0,0,.6-.4.81.81,0,0,0-.3-1L10,40.72A.62.62,0,0,0,9.1,41Z" style="fill:#707070"/><path d="M13.4,31.83h.1c.1,0,.2-.1.3-.2s0-.3-.1-.41l-7.4-4c-.1-.09-.3,0-.4.1s0,.3.1.4Z" style="fill:#707070"/><path d="M9.1,44.52a.81.81,0,0,0,.3,1l17.8,9.4a.37.37,0,0,0,.3.1.55.55,0,0,0,.6-.4.81.81,0,0,0-.3-1L10,44.22A.69.69,0,0,0,9.1,44.52Z" style="fill:#707070"/><path d="M12.1,29.72h.1c.1,0,.2-.09.3-.09s0-.3-.1-.41l-6.1-3.3c-.1-.09-.3,0-.4.1s0,.3.1.4Z" style="fill:#707070"/><path d="M85.5,55.42V39.52H70V19.32a1.86,1.86,0,0,0-.9-1.5L35.8.23a1.49,1.49,0,0,0-1.6,0L.9,17.82a1.65,1.65,0,0,0-.9,1.5v43.8a1.86,1.86,0,0,0,.9,1.5l33.3,17.5a2.35,2.35,0,0,0,.8.2,1.88,1.88,0,0,0,.8-.2l33.3-17.5a1.65,1.65,0,0,0,.9-1.5v-7.7ZM35,3.82l30.4,16L51.6,27.13l-30.4-16Zm-.9,74.3L3.5,62V21.22L34.1,37.33ZM35,35.83l-30.4-16L19.3,12,49.7,28ZM66.5,62,35.9,78.12V37.33l1.1-.6,29.5-15.5V39.42H56.3V31.63L40.5,47.42,56.3,63.23V55.42H66.5Z" style="fill:#707070"/></svg>