<svg fill="#000001" xmlns:dc="http://purl.org/dc/elements/1.1/" xmlns:cc="http://creativecommons.org/ns#" xmlns:rdf="http://www.w3.org/1999/02/22-rdf-syntax-ns#" xmlns:svg="http://www.w3.org/2000/svg" xmlns="http://www.w3.org/2000/svg" xmlns:sodipodi="http://sodipodi.sourceforge.net/DTD/sodipodi-0.dtd" xmlns:inkscape="http://www.inkscape.org/namespaces/inkscape" version="1.1" x="0px" y="0px" viewBox="0 0 100 100"><g transform="translate(0,-952.36218)"><path style="text-indent:0;text-transform:none;direction:ltr;block-progression:tb;baseline-shift:baseline;color:#000000;enable-background:accumulate;" d="m 36.997462,958.36218 c -17.048199,0 -30.9974995,13.94907 -30.9974995,30.99746 0,17.04836 13.9493005,30.99746 30.9974995,30.99746 6.3627,0 12.3131,-1.9275 17.2485,-5.2496 l 29.4976,29.4976 c 2.3428,2.3427 6.1565,2.3428 8.4993,0 2.3429,-2.3429 2.3429,-6.1252 0,-8.468 l -29.5288,-29.5289 c 3.3273,-4.9379 5.2808,-10.88027 5.2808,-17.24856 0,-17.04836 -13.9491,-30.99746 -30.9974,-30.99746 z m 0,11.99902 c 10.5634,0 18.9984,8.4349 18.9984,18.99844 0,10.5634 -8.435,18.99846 -18.9984,18.99846 -10.5634,0 -18.998499,-8.43509 -18.998499,-18.99846 0,-10.56351 8.435099,-18.99844 18.998499,-18.99844 z" fill="#000001" fill-opacity="1" marker="none" visibility="visible" display="inline" overflow="visible"></path></g></svg>